# xmcd
#
# Track frame offsets:
#  150
#  9093
#  15293
#  29945
#  45489
#  60459
#  73648
#  82158
#  97341
#  112673
#  124263
#
# Disc length: 1795 seconds
#
# Revision: 0
# Processed by: cddbd v1.4PL0 Copyright (c) Steve Scherf et al.
# Submitted via: AltoMP3_Maker 3.0
#
DISCID=8807010b
DTITLE=Riivaaja - Filosofi
DYEAR=1900
DGENRE=
TTITLE0=Kostaja
TTITLE1=Massa Psykoosi
TTITLE2=Aamunkoitto
TTITLE3=Kolmas Valtakunta
TTITLE4=Erakko
TTITLE5=Lento 666 Helvettiin
TTITLE6=Tuska
TTITLE7=Ockulta
TTITLE8=Filosofi
TTITLE9=Taistelu
TTITLE10=
EXTD=
EXTT0=
EXTT1=
EXTT2=
EXTT3=
EXTT4=
EXTT5=
EXTT6=
EXTT7=
EXTT8=
EXTT9=
EXTT10=
PLAYORDER=
